<svg width="72" height="77" xmlns="http://www.w3.org/2000/svg" xmlns:xlink="http://www.w3.org/1999/xlink" overflow="hidden"><defs><clipPath id="clip0"><path d="M470 343 542 343 542 420 470 420Z" fill-rule="evenodd" clip-rule="evenodd"/></clipPath></defs><g clip-path="url(#clip0)" transform="translate(-470 -343)"><path d="M471 353C471 348.029 475.029 344 480 344 484.971 344 489 348.029 489 353 489 357.971 484.971 362 480 362 475.029 362 471 357.971 471 353Z" fill="#262626" fill-rule="evenodd"/><path d="M498 353C498 348.029 502.029 344 507 344 511.971 344 516 348.029 516 353 516 357.971 511.971 362 507 362 502.029 362 498 357.971 498 353Z" fill="#262626" fill-rule="evenodd"/><path d="M523 353C523 348.029 527.029 344 532 344 536.971 344 541 348.029 541 353 541 357.971 536.971 362 532 362 527.029 362 523 357.971 523 353Z" fill="#262626" fill-rule="evenodd"/><path d="M471 382C471 377.029 475.029 373 480 373 484.971 373 489 377.029 489 382 489 386.971 484.971 391 480 391 475.029 391 471 386.971 471 382Z" fill="#262626" fill-rule="evenodd"/><path d="M498 382C498 377.029 502.029 373 507 373 511.971 373 516 377.029 516 382 516 386.971 511.971 391 507 391 502.029 391 498 386.971 498 382Z" fill="#262626" fill-rule="evenodd"/><path d="M523 382C523 377.029 527.029 373 532 373 536.971 373 541 377.029 541 382 541 386.971 536.971 391 532 391 527.029 391 523 386.971 523 382Z" fill="#262626" fill-rule="evenodd"/><path d="M471 410C471 405.029 475.029 401 480 401 484.971 401 489 405.029 489 410 489 414.971 484.971 419 480 419 475.029 419 471 414.971 471 410Z" fill="#262626" fill-rule="evenodd"/><path d="M498 410C498 405.029 502.029 401 507 401 511.971 401 516 405.029 516 410 516 414.971 511.971 419 507 419 502.029 419 498 414.971 498 410Z" fill="#262626" fill-rule="evenodd"/><path d="M523 410C523 405.029 527.029 401 532 401 536.971 401 541 405.029 541 410 541 414.971 536.971 419 532 419 527.029 419 523 414.971 523 410Z" fill="#262626" fill-rule="evenodd"/></g></svg>